<svg width="199" height="91" viewBox="0 0 199 91" fill="none" xmlns="http://www.w3.org/2000/svg">
<g clip-path="url(#clip0)">
<path d="M45.0919 71.6398C37.5376 73.8009 29.9653 71.6619 22.784 67.0971C10.1606 59.0834 7.4013 43.5764 14.4388 30.8126C21.8538 17.3565 38.36 13.59 51.707 21.467C54.4798 23.1032 56.8616 25.1364 58.8254 27.4475C61.7015 30.8347 66.2314 32.4048 70.586 31.3419L70.959 31.2493C75.8484 30.054 78.2617 24.6645 75.8889 20.3026C72.4735 14.0266 67.2336 8.59738 60.3938 4.84412C42.2068 -5.12782 18.9282 0.782132 7.93158 18.1459C-3.66277 36.4491 2.28271 60.4638 21.0359 71.5295C28.9407 76.1958 37.8432 77.8056 46.3278 76.7162C47.8287 76.5221 48.8534 75.124 48.5523 73.6686C48.2332 72.1205 46.6334 71.1988 45.0919 71.6398Z" fill="url(#paint0_linear)"/>
<path opacity="0.6" d="M45.0919 71.6398C37.5376 73.8009 29.9653 71.6619 22.784 67.0971C10.1606 59.0834 7.4013 43.5764 14.4388 30.8126C21.8538 17.3565 38.36 13.59 51.707 21.467C54.4798 23.1032 56.8616 25.1364 58.8254 27.4475C61.7015 30.8347 66.2314 32.4048 70.586 31.3419L70.959 31.2493C75.8484 30.054 78.2617 24.6645 75.8889 20.3026C72.4735 14.0266 67.2336 8.59738 60.3938 4.84412C42.2068 -5.12782 18.9282 0.782132 7.93158 18.1459C-3.66277 36.4491 2.28271 60.4638 21.0359 71.5295C28.9407 76.1958 37.8432 77.8056 46.3278 76.7162C47.8287 76.5221 48.8534 75.124 48.5523 73.6686C48.2332 72.1205 46.6334 71.1988 45.0919 71.6398Z" fill="url(#paint1_linear)"/>
<path d="M13.0412 30.989C21.1707 17.9386 38.36 13.59 51.707 21.467C54.4798 23.1032 56.8616 25.1364 58.8254 27.4475C61.7015 30.8347 66.2314 32.4048 70.586 31.3419L70.959 31.2493C75.8484 30.054 78.2617 24.6645 75.8889 20.3026C72.4735 14.0266 67.2336 8.59738 60.3938 4.84412C42.2068 -5.12782 18.9282 0.782132 7.93158 18.1459C-3.66277 36.4491 2.28271 60.4638 21.0359 71.5295C26.2758 74.6212 31.9517 76.3634 37.659 76.875C4.61955 71.0356 6.74069 41.1021 13.0412 30.989Z" fill="url(#paint2_linear)"/>
<path opacity="0.6" d="M13.0412 30.989C21.1707 17.9386 38.36 13.59 51.707 21.467C54.4798 23.1032 56.8616 25.1364 58.8254 27.4475C61.7015 30.8347 66.2314 32.4048 70.586 31.3419L70.959 31.2493C75.8484 30.054 78.2617 24.6645 75.8889 20.3026C72.4735 14.0266 67.2336 8.59738 60.3938 4.84412C42.2068 -5.12782 18.9282 0.782132 7.93158 18.1459C-3.66277 36.4491 2.28271 60.4638 21.0359 71.5295C26.2758 74.6212 31.9517 76.3634 37.659 76.875C4.61955 71.0356 6.74069 41.1021 13.0412 30.989Z" fill="url(#paint3_linear)"/>
<path d="M31.4303 12.236C47.7837 11.7155 55.5133 20.9465 59.5309 26.9888C61.9846 30.6803 66.2224 32.4004 70.5815 31.3375L70.9545 31.2448C75.8439 30.0496 78.2571 24.6601 75.8843 20.2982C72.4689 14.0222 67.229 8.59296 60.3892 4.8397C42.2023 -5.12783 18.9282 0.782122 7.92703 18.1459C3.63532 24.9203 1.75236 32.4753 2.02649 39.8672C1.71641 23.9324 15.0769 12.7564 31.4303 12.236Z" fill="url(#paint4_linear)"/>
<path d="M70.9545 29.8203L70.5815 29.9129C66.2223 30.9758 61.9846 29.2601 59.5309 25.5642C55.5133 19.522 47.7837 10.291 31.4303 10.8114C15.0769 11.3274 1.71641 22.5034 2.02649 38.4382C2.0175 38.2089 2.0175 37.9795 2.01301 37.7502C1.99952 38.4559 1.99952 39.1615 2.02649 39.8672C1.71641 23.9324 15.0769 12.7564 31.4303 12.236C47.7837 11.7155 55.5133 20.9465 59.5309 26.9888C61.9846 30.6803 66.2223 32.4004 70.5815 31.3375L70.9545 31.2448C74.8013 30.3054 77.1156 26.7639 76.7696 23.1694C76.473 26.2346 74.289 29.0043 70.9545 29.8203Z" fill="url(#paint5_linear)"/>
<path d="M56.4211 71.9088C56.4211 73.448 55.1493 74.6962 53.581 74.6962C52.0126 74.6962 50.7408 73.448 50.7408 71.9088C50.7408 70.3696 52.0126 69.1214 53.581 69.1214C55.1493 69.1258 56.4211 70.3696 56.4211 71.9088Z" fill="url(#paint6_linear)"/>
<path d="M45.0919 71.6398C37.5376 73.8009 29.9653 71.6618 22.784 67.0971C14.7938 62.0251 10.7627 53.9452 10.6593 45.464C10.4616 54.2936 14.4927 62.7881 22.784 68.0497C29.9698 72.6101 37.5376 74.7535 45.0919 72.5924C46.6333 72.1514 48.2331 73.0732 48.5522 74.6212C48.5522 74.63 48.5567 74.6433 48.5567 74.6521C48.6196 74.3345 48.6196 74.0038 48.5522 73.6686C48.2331 72.1205 46.6333 71.1987 45.0919 71.6398Z" fill="url(#paint7_linear)"/>
<path d="M62.3127 68.4466C62.3127 69.5713 61.3824 70.4842 60.2365 70.4842C59.0905 70.4842 58.1603 69.5713 58.1603 68.4466C58.1603 67.322 59.0905 66.409 60.2365 66.409C61.3869 66.409 62.3127 67.322 62.3127 68.4466Z" fill="url(#paint8_linear)"/>
<path d="M64.9101 66.409C65.6497 66.409 66.2493 65.8206 66.2493 65.0947C66.2493 64.3689 65.6497 63.7804 64.9101 63.7804C64.1705 63.7804 63.5709 64.3689 63.5709 65.0947C63.5709 65.8206 64.1705 66.409 64.9101 66.409Z" fill="url(#paint9_linear)"/>
<path d="M13.0411 30.989C18.3035 22.5387 27.3633 17.7446 36.7152 17.5461C26.9634 17.3609 17.3733 22.1947 11.8997 30.989C5.74749 40.8639 3.5904 69.6198 34.2256 76.4163C35.367 76.6191 36.513 76.7735 37.6589 76.8794C4.61951 71.0356 6.74065 41.1021 13.0411 30.989Z" fill="url(#paint10_linear)"/>
<path d="M42.8787 46.5743C42.6933 48.1612 42.1059 49.3875 41.1166 50.2532C40.1342 51.1119 38.8254 51.5413 37.1903 51.5413C35.4179 51.5413 33.9958 50.9058 32.9241 49.6349C31.8592 48.3639 31.3268 46.6636 31.3268 44.5339V43.0912C31.3268 41.6965 31.5741 40.4702 32.0687 39.4122C32.5702 38.3543 33.2779 37.5436 34.1916 36.9802C35.1053 36.41 36.1633 36.1249 37.3655 36.1249C38.9594 36.1249 40.2372 36.5715 41.199 37.4646C42.1608 38.3508 42.7207 39.5806 42.8787 41.1538H40.8899C40.7181 39.9584 40.3437 39.0928 39.7666 38.5569C39.1964 38.0211 38.396 37.7531 37.3655 37.7531C36.1014 37.7531 35.1087 38.2203 34.3874 39.1546C33.6729 40.0889 33.3156 41.4183 33.3156 43.1427V44.5957C33.3156 46.2239 33.6557 47.5189 34.3358 48.4807C35.016 49.4425 35.9675 49.9234 37.1903 49.9234C38.2896 49.9234 39.1311 49.6761 39.7151 49.1814C40.3059 48.6799 40.6975 47.8109 40.8899 46.5743H42.8787ZM57.1307 44.3175C57.1307 45.7876 56.8833 47.0723 56.3887 48.1715C55.894 49.2639 55.1933 50.0986 54.2865 50.6757C53.3796 51.2528 52.3216 51.5413 51.1125 51.5413C49.9308 51.5413 48.8832 51.2528 47.9694 50.6757C47.0557 50.0917 46.3447 49.2639 45.8363 48.1922C45.3348 47.1136 45.0772 45.8666 45.0634 44.4514V43.3694C45.0634 41.9267 45.3142 40.6523 45.8157 39.5462C46.3172 38.4401 47.0248 37.5951 47.9385 37.0112C48.8591 36.4203 49.9102 36.1249 51.0919 36.1249C52.2941 36.1249 53.3521 36.4169 54.2658 37.0009C55.1864 37.5779 55.894 38.4195 56.3887 39.5256C56.8833 40.6248 57.1307 41.9061 57.1307 43.3694V44.3175ZM55.1624 43.3488C55.1624 41.5694 54.8051 40.2057 54.0907 39.2577C53.3762 38.3027 52.3766 37.8253 51.0919 37.8253C49.8415 37.8253 48.8557 38.3027 48.1343 39.2577C47.4198 40.2057 47.0523 41.5248 47.0317 43.2148V44.3175C47.0317 46.0418 47.3924 47.3987 48.1137 48.388C48.8419 49.3704 49.8415 49.8616 51.1125 49.8616C52.3903 49.8616 53.3796 49.3979 54.0804 48.4704C54.7811 47.5361 55.1418 46.1998 55.1624 44.4617V43.3488ZM62.6542 36.331L67.5594 48.5734L72.4646 36.331H75.0306V51.3352H73.052V45.4922L73.2375 39.1855L68.3117 51.3352H66.7968L61.8813 39.2164L62.0771 45.4922V51.3352H60.0985V36.331H62.6542ZM80.5025 45.4613V51.3352H78.524V36.331H84.0578C85.6997 36.331 86.9844 36.7501 87.9119 37.5882C88.8462 38.4264 89.3134 39.5359 89.3134 40.9168C89.3134 42.3732 88.8565 43.4965 87.9428 44.2865C87.036 45.0697 85.7341 45.4613 84.0372 45.4613H80.5025ZM80.5025 43.8434H84.0578C85.1158 43.8434 85.9264 43.5961 86.4898 43.1015C87.0531 42.5999 87.3348 41.8786 87.3348 40.9374C87.3348 40.0443 87.0531 39.3298 86.4898 38.7939C85.9264 38.2581 85.1536 37.9798 84.1712 37.9592H80.5025V43.8434ZM98.7013 47.4193H92.4152L91.0034 51.3352H88.963L94.6926 36.331H96.4239L102.164 51.3352H100.134L98.7013 47.4193ZM93.0129 45.7911H98.1139L95.5582 38.7733L93.0129 45.7911ZM115.715 51.3352H113.726L106.172 39.7729V51.3352H104.184V36.331H106.172L113.747 47.9448V36.331H115.715V51.3352ZM123.516 43.864L127.432 36.331H129.678L124.505 45.7396V51.3352H122.527V45.7396L117.353 36.331H119.621L123.516 43.864ZM148.382 51.3352H146.393L138.84 39.7729V51.3352H136.851V36.331H138.84L146.414 47.9448V36.331H148.382V51.3352ZM160.367 47.4193H154.081L152.669 51.3352H150.629L156.358 36.331H158.089L163.829 51.3352H161.799L160.367 47.4193ZM154.678 45.7911H159.779L157.224 38.7733L154.678 45.7911ZM168.405 36.331L173.31 48.5734L178.215 36.331H180.781V51.3352H178.803V45.4922L178.988 39.1855L174.062 51.3352H172.547L167.632 39.2164L167.828 45.4922V51.3352H165.849V36.331H168.405ZM192.756 44.3999H186.253V49.7173H193.807V51.3352H184.275V36.331H193.704V37.9592H186.253V42.782H192.756V44.3999Z" fill="white"/>
<path d="M99.3065 57.3343L98.1044 59.6326V61.0253H97.6225V59.6326L96.4151 57.3343H96.95L97.8608 59.2036L98.7716 57.3343H99.3065ZM101.488 61.0623C101.146 61.0623 100.833 60.9829 100.551 60.824C100.268 60.6616 100.044 60.4375 99.8783 60.1515C99.7159 59.862 99.6347 59.5372 99.6347 59.1771C99.6347 58.817 99.7159 58.494 99.8783 58.2081C100.044 57.9186 100.268 57.6944 100.551 57.5355C100.833 57.3731 101.146 57.2919 101.488 57.2919C101.834 57.2919 102.148 57.3731 102.431 57.5355C102.713 57.6944 102.936 57.9168 103.098 58.2028C103.26 58.4887 103.342 58.8135 103.342 59.1771C103.342 59.5408 103.26 59.8656 103.098 60.1515C102.936 60.4375 102.713 60.6616 102.431 60.824C102.148 60.9829 101.834 61.0623 101.488 61.0623ZM101.488 60.644C101.746 60.644 101.977 60.584 102.182 60.4639C102.39 60.3439 102.553 60.1727 102.669 59.9503C102.789 59.7279 102.849 59.4702 102.849 59.1771C102.849 58.8806 102.789 58.6229 102.669 58.404C102.553 58.1816 102.392 58.0104 102.187 57.8903C101.982 57.7703 101.749 57.7103 101.488 57.7103C101.227 57.7103 100.994 57.7703 100.789 57.8903C100.584 58.0104 100.422 58.1816 100.302 58.404C100.185 58.6229 100.127 58.8806 100.127 59.1771C100.127 59.4702 100.185 59.7279 100.302 59.9503C100.422 60.1727 100.584 60.3439 100.789 60.4639C100.997 60.584 101.23 60.644 101.488 60.644ZM104.449 57.3343V59.6696C104.449 59.9979 104.528 60.2415 104.687 60.4004C104.85 60.5593 105.074 60.6387 105.36 60.6387C105.642 60.6387 105.863 60.5593 106.022 60.4004C106.184 60.2415 106.265 59.9979 106.265 59.6696V57.3343H106.747V59.6643C106.747 59.9715 106.685 60.2309 106.562 60.4428C106.438 60.6511 106.271 60.8064 106.059 60.9088C105.851 61.0111 105.616 61.0623 105.355 61.0623C105.093 61.0623 104.857 61.0111 104.645 60.9088C104.437 60.8064 104.271 60.6511 104.147 60.4428C104.027 60.2309 103.967 59.9715 103.967 59.6643V57.3343H104.449ZM109.495 61.0253L108.616 59.5161H108.033V61.0253H107.551V57.3343H108.743C109.022 57.3343 109.256 57.382 109.447 57.4773C109.641 57.5726 109.786 57.7015 109.881 57.8639C109.976 58.0263 110.024 58.2116 110.024 58.4199C110.024 58.6741 109.95 58.8982 109.802 59.0924C109.657 59.2866 109.438 59.4154 109.145 59.479L110.072 61.0253H109.495ZM108.033 59.1295H108.743C109.004 59.1295 109.2 59.0659 109.33 58.9388C109.461 58.8082 109.526 58.6352 109.526 58.4199C109.526 58.201 109.461 58.0316 109.33 57.9115C109.203 57.7915 109.007 57.7315 108.743 57.7315H108.033V59.1295ZM113.355 61.0623C113.111 61.0623 112.893 61.02 112.698 60.9352C112.508 60.847 112.358 60.727 112.248 60.5752C112.139 60.4198 112.082 60.2415 112.079 60.0403H112.592C112.61 60.2133 112.681 60.3598 112.804 60.4798C112.931 60.5963 113.115 60.6546 113.355 60.6546C113.584 60.6546 113.765 60.5981 113.895 60.4851C114.029 60.3686 114.096 60.2204 114.096 60.0403C114.096 59.8991 114.058 59.7844 113.98 59.6961C113.902 59.6078 113.805 59.5408 113.689 59.4949C113.572 59.449 113.415 59.3996 113.217 59.3466C112.974 59.2831 112.778 59.2195 112.63 59.156C112.485 59.0924 112.359 58.9936 112.254 58.8594C112.151 58.7217 112.1 58.5382 112.1 58.3087C112.1 58.1075 112.151 57.9292 112.254 57.7738C112.356 57.6185 112.499 57.4985 112.682 57.4137C112.87 57.329 113.083 57.2867 113.323 57.2867C113.669 57.2867 113.952 57.3731 114.17 57.5461C114.393 57.7191 114.518 57.9486 114.546 58.2345H114.017C113.999 58.0933 113.925 57.9698 113.795 57.8639C113.664 57.7544 113.491 57.6997 113.276 57.6997C113.074 57.6997 112.91 57.7527 112.783 57.8586C112.656 57.9609 112.592 58.1057 112.592 58.2928C112.592 58.4269 112.63 58.5364 112.704 58.6211C112.781 58.7058 112.875 58.7712 112.984 58.817C113.097 58.8594 113.254 58.9088 113.456 58.9653C113.699 59.0324 113.895 59.0995 114.043 59.1666C114.192 59.2301 114.319 59.3307 114.425 59.4684C114.531 59.6025 114.584 59.7861 114.584 60.0191C114.584 60.1992 114.536 60.3686 114.441 60.5275C114.345 60.6864 114.204 60.8152 114.017 60.9141C113.83 61.0129 113.609 61.0623 113.355 61.0623ZM115.775 60.6334H117.067V61.0253H115.293V57.3343H115.775V60.6334ZM119.252 61.0623C118.909 61.0623 118.597 60.9829 118.315 60.824C118.032 60.6616 117.808 60.4375 117.642 60.1515C117.48 59.862 117.398 59.5372 117.398 59.1771C117.398 58.817 117.48 58.494 117.642 58.2081C117.808 57.9186 118.032 57.6944 118.315 57.5355C118.597 57.3731 118.909 57.2919 119.252 57.2919C119.598 57.2919 119.912 57.3731 120.194 57.5355C120.477 57.6944 120.699 57.9168 120.862 58.2028C121.024 58.4887 121.105 58.8135 121.105 59.1771C121.105 59.5408 121.024 59.8656 120.862 60.1515C120.699 60.4375 120.477 60.6616 120.194 60.824C119.912 60.9829 119.598 61.0623 119.252 61.0623ZM119.252 60.644C119.51 60.644 119.741 60.584 119.946 60.4639C120.154 60.3439 120.316 60.1727 120.433 59.9503C120.553 59.7279 120.613 59.4702 120.613 59.1771C120.613 58.8806 120.553 58.6229 120.433 58.404C120.316 58.1816 120.156 58.0104 119.951 57.8903C119.746 57.7703 119.513 57.7103 119.252 57.7103C118.991 57.7103 118.758 57.7703 118.553 57.8903C118.348 58.0104 118.186 58.1816 118.066 58.404C117.949 58.6229 117.891 58.8806 117.891 59.1771C117.891 59.4702 117.949 59.7279 118.066 59.9503C118.186 60.1727 118.348 60.3439 118.553 60.4639C118.761 60.584 118.994 60.644 119.252 60.644ZM124.537 58.404C124.435 58.1887 124.287 58.0227 124.093 57.9062C123.898 57.7862 123.672 57.7262 123.415 57.7262C123.157 57.7262 122.924 57.7862 122.716 57.9062C122.511 58.0227 122.349 58.1922 122.229 58.4146C122.112 58.6335 122.054 58.8877 122.054 59.1771C122.054 59.4666 122.112 59.7208 122.229 59.9397C122.349 60.1586 122.511 60.328 122.716 60.4481C122.924 60.5646 123.157 60.6228 123.415 60.6228C123.775 60.6228 124.071 60.5151 124.304 60.2998C124.537 60.0844 124.673 59.7932 124.712 59.426H123.24V59.0342H125.226V59.4048C125.198 59.7085 125.102 59.9874 124.94 60.2415C124.777 60.4922 124.564 60.6917 124.299 60.8399C124.034 60.9847 123.74 61.057 123.415 61.057C123.072 61.057 122.76 60.9776 122.477 60.8187C122.195 60.6563 121.971 60.4322 121.805 60.1462C121.643 59.8603 121.561 59.5372 121.561 59.1771C121.561 58.817 121.643 58.494 121.805 58.2081C121.971 57.9186 122.195 57.6944 122.477 57.5355C122.76 57.3731 123.072 57.2919 123.415 57.2919C123.807 57.2919 124.153 57.389 124.453 57.5832C124.756 57.7774 124.977 58.051 125.115 58.404H124.537ZM128.045 60.2045H126.435L126.138 61.0253H125.63L126.964 57.3555H127.52L128.85 61.0253H128.341L128.045 60.2045ZM127.907 59.8126L127.24 57.9486L126.573 59.8126H127.907ZM132.333 61.0253H131.851L129.913 58.0863V61.0253H129.431V57.329H129.913L131.851 60.2627V57.329H132.333V61.0253ZM137.41 57.3343V61.0253H136.928V59.3519H135.048V61.0253H134.566V57.3343H135.048V58.9547H136.928V57.3343H137.41ZM138.715 57.7262V58.96H140.06V59.3572H138.715V60.6281H140.219V61.0253H138.233V57.329H140.219V57.7262H138.715ZM142.891 61.0253L142.012 59.5161H141.43V61.0253H140.948V57.3343H142.139C142.418 57.3343 142.653 57.382 142.844 57.4773C143.038 57.5726 143.183 57.7015 143.278 57.8639C143.373 58.0263 143.421 58.2116 143.421 58.4199C143.421 58.6741 143.347 58.8982 143.198 59.0924C143.054 59.2866 142.835 59.4154 142.542 59.479L143.469 61.0253H142.891ZM141.43 59.1295H142.139C142.401 59.1295 142.597 59.0659 142.727 58.9388C142.858 58.8082 142.923 58.6352 142.923 58.4199C142.923 58.201 142.858 58.0316 142.727 57.9115C142.6 57.7915 142.404 57.7315 142.139 57.7315H141.43V59.1295ZM144.652 57.7262V58.96H145.997V59.3572H144.652V60.6281H146.155V61.0253H144.17V57.329H146.155V57.7262H144.652Z" fill="#6C6C75"/>
<path d="M192.997 54.3539H32.8864C32.6568 54.3539 32.4722 54.5171 32.4722 54.7199C32.4722 54.9228 32.6568 55.086 32.8864 55.086H192.997C193.227 55.086 193.412 54.9228 193.412 54.7199C193.412 54.5215 193.227 54.3539 192.997 54.3539Z" fill="#D3D3DD"/>
</g>
<defs>
<linearGradient id="paint0_linear" x1="1.99756" y1="38.5216" x2="76.8096" y2="38.5216" gradientUnits="userSpaceOnUse">
<stop stop-color="#FA71CD"/>
<stop offset="1" stop-color="#C471F5"/>
</linearGradient>
<linearGradient id="paint1_linear" x1="39.3266" y1="27.1773" x2="40.0599" y2="68.1231" gradientUnits="userSpaceOnUse">
<stop offset="0.1098" stop-color="#666666"/>
<stop offset="0.2379" stop-color="#757575" stop-opacity="0.856"/>
<stop offset="0.484" stop-color="#9C9C9C" stop-opacity="0.5794"/>
<stop offset="0.82" stop-color="#DBDBDB" stop-opacity="0.2016"/>
<stop offset="0.9994" stop-color="white" stop-opacity="0"/>
</linearGradient>
<linearGradient id="paint2_linear" x1="42.965" y1="13.2321" x2="33.0065" y2="60.5849" gradientUnits="userSpaceOnUse">
<stop stop-color="#764BA2"/>
<stop offset="1" stop-color="#667EEA"/>
</linearGradient>
<linearGradient id="paint3_linear" x1="59.543" y1="27.7868" x2="20.6588" y2="45.5158" gradientUnits="userSpaceOnUse">
<stop offset="0.1098" stop-color="#666666"/>
<stop offset="0.2379" stop-color="#757575" stop-opacity="0.856"/>
<stop offset="0.484" stop-color="#9C9C9C" stop-opacity="0.5794"/>
<stop offset="0.82" stop-color="#DBDBDB" stop-opacity="0.2016"/>
<stop offset="0.9994" stop-color="white" stop-opacity="0"/>
</linearGradient>
<linearGradient id="paint4_linear" x1="2.00056" y1="19.9339" x2="76.8065" y2="19.9339" gradientUnits="userSpaceOnUse">
<stop stop-color="#4FACFE"/>
<stop offset="1" stop-color="#00F2FE"/>
</linearGradient>
<linearGradient id="paint5_linear" x1="2.00492" y1="25.3269" x2="76.8046" y2="25.3269" gradientUnits="userSpaceOnUse">
<stop stop-color="#00EDFF"/>
<stop offset="1" stop-color="#00F2FE" stop-opacity="0"/>
</linearGradient>
<linearGradient id="paint6_linear" x1="54.1882" y1="69.1966" x2="52.8032" y2="75.6178" gradientUnits="userSpaceOnUse">
<stop stop-color="#FA71CD"/>
<stop offset="1" stop-color="#C471F5"/>
</linearGradient>
<linearGradient id="paint7_linear" x1="23.4178" y1="59.3667" x2="46.6533" y2="62.9342" gradientUnits="userSpaceOnUse">
<stop stop-color="#FF99F5"/>
<stop offset="0.9921" stop-color="#C471F5" stop-opacity="0"/>
</linearGradient>
<linearGradient id="paint8_linear" x1="60.5181" y1="66.3214" x2="59.9647" y2="70.6915" gradientUnits="userSpaceOnUse">
<stop stop-color="#FA71CD"/>
<stop offset="1" stop-color="#C471F5"/>
</linearGradient>
<linearGradient id="paint9_linear" x1="65.1428" y1="63.925" x2="64.589" y2="66.8171" gradientUnits="userSpaceOnUse">
<stop stop-color="#FA71CD"/>
<stop offset="1" stop-color="#C471F5"/>
</linearGradient>
<linearGradient id="paint10_linear" x1="21.2889" y1="66.2863" x2="31.3531" y2="22.171" gradientUnits="userSpaceOnUse">
<stop stop-color="#90A8FC"/>
<stop offset="1" stop-color="#667EEA" stop-opacity="0"/>
</linearGradient>
<clipPath id="clip0">
<rect width="199" height="91" fill="white"/>
</clipPath>
</defs>
</svg>
